# xmcd
#
# Track frame offsets:
#      150
#      20007
#      34780
#      61465
#      86910
#      106732
#      136877
#      157077
#      173209
# 
# Disc length: 2680 seconds
#
# Revision: 6
# Processed by: cddbd v1.4PL0 Copyright (c) Steve Scherf et al.
#
# Submitted via: FreeRIP 1.21
#
DISCID=750a7609
DTITLE=Denali Cooks - It's Good
DYEAR=1992
DGENRE=
TTITLE0=Mushrooms and Banannas
TTITLE1=Gotta Roll
TTITLE2=Just a Night
TTITLE3=Do it Again
TTITLE4=I Want Mine
TTITLE5=Shine
TTITLE6=Sing
TTITLE7=It's Good
TTITLE8=Wildebeest
EXTD=YEAR: 1992
EXTT0=
EXTT1=
EXTT2=
EXTT3=
EXTT4=
EXTT5=
EXTT6=
EXTT7=
EXTT8=
PLAYORDER=
